<?xml version="1.0" encoding="utf-8"?>
<!-- Generator: Adobe Illustrator 23.1.0, SVG Export Plug-In . SVG Version: 6.00 Build 0)  -->
<svg version="1.1" id="Layer_1" xmlns="http://www.w3.org/2000/svg" xmlns:xlink="http://www.w3.org/1999/xlink" x="0px" y="0px"
	 viewBox="0 0 336.1 170.2" style="enable-background:new 0 0 336.1 170.2;" xml:space="preserve">
<style type="text/css">
	.st0{fill:#FFFFFF;}
	.st1{fill:#706F6F;}
</style>
<path d="M231.1,19.7c-13.6,0-24.6,11-24.6,24.6s11,24.6,24.6,24.6s24.6-11,24.6-24.6C255.7,30.7,244.7,19.7,231.1,19.7z"/>
<path class="st0" d="M236.4,44.2h-3.5c0,5.6,0,12.6,0,12.6h-5.2c0,0,0-6.9,0-12.6h-2.5v-4.4h2.5v-2.9c0-2.1,1-5.3,5.3-5.3h3.9v4.3
	c0,0-2.4,0-2.8,0c-0.5,0-1.1,0.2-1.1,1.2v2.6h4L236.4,44.2z"/>
<path d="M168,19.7c-13.6,0-24.6,11-24.6,24.6s11,24.6,24.6,24.6s24.6-11,24.6-24.6S181.6,19.7,168,19.7z"/>
<path class="st0" d="M178.3,40.4c0,0.2,0,0.4,0,0.7c0,6.8-5.2,14.6-14.6,14.6c-2.9,0-5.6-0.8-7.9-2.3c0.4,0,0.8,0.1,1.2,0.1
	c2.4,0,4.6-0.8,6.4-2.2c-2.2,0-4.1-1.5-4.8-3.6c0.3,0.1,0.6,0.1,1,0.1c0.5,0,0.9-0.1,1.4-0.2c-2.3-0.5-4.1-2.5-4.1-5c0,0,0,0,0-0.1
	c0.7,0.4,1.5,0.6,2.3,0.6c-1.4-0.9-2.3-2.5-2.3-4.3c0-0.9,0.3-1.8,0.7-2.6c2.5,3.1,6.3,5.1,10.6,5.4c-0.1-0.4-0.1-0.8-0.1-1.2
	c0-2.8,2.3-5.1,5.1-5.1c1.5,0,2.8,0.6,3.7,1.6c1.2-0.2,2.3-0.7,3.3-1.2c-0.4,1.2-1.2,2.2-2.3,2.8c1-0.1,2-0.4,2.9-0.8
	C180.2,38.8,179.3,39.7,178.3,40.4z"/>
<ellipse cx="105" cy="44.3" rx="24.6" ry="24.6"/>
<g>
	<path class="st0" d="M117,33.9l-4.4,22.2c0,0-0.6,1.5-2.3,0.8l-10.2-7.8l-3.7-1.8l-6.2-2.1c0,0-1-0.3-1-1.1
		c-0.1-0.7,1.1-1.1,1.1-1.1l24.7-9.7C114.9,33.3,117,32.4,117,33.9z"/>
	<path d="M99.3,55.8c0,0-0.3,0-0.7-1.2c-0.4-1.2-2.2-7.3-2.2-7.3l14.9-9.5c0,0,0.9-0.5,0.8,0c0,0,0.2,0.1-0.3,0.5
		s-11.7,10.6-11.7,10.6"/>
	<path class="st0" d="M104,52.1l-4,3.7c0,0-0.3,0.2-0.7,0.1l0.8-6.8"/>
</g>
<path d="M42.3,18.8c-13.6,0-24.6,11-24.6,24.6S28.7,68,42.3,68s24.6-11,24.6-24.6S55.9,18.8,42.3,18.8z"/>
<g>
	<path class="st0" d="M42.5,29.2c-7.5,0-13.7,6.1-13.7,13.7c0,2.4,0.7,4.7,1.8,6.7l-1.8,6.3c-0.1,0.3,0.1,0.6,0.4,0.7
		c0.1,0,0.2,0,0.3,0L36,55c1.9,1,4.1,1.6,6.4,1.6c7.5,0,13.7-6.1,13.7-13.7S50,29.2,42.5,29.2z"/>
	<path d="M37.5,35.8c-0.4,0-0.9,0.1-1.4,0.6c-0.3,0.3-1.4,1.4-1.4,3.3c0,2,1.4,3.7,1.6,3.9l0,0l0,0c0,0,0.2,0.3,0.5,0.7
		s0.7,0.9,1.3,1.5c1.1,1.1,2.6,2.4,4.4,3.2c0.9,0.4,1.5,0.6,2.1,0.7c1,0.3,1.8,0.3,2.5,0.2c0.5-0.1,1-0.3,1.6-0.6
		c0.5-0.3,1.1-0.8,1.3-1.4c0.2-0.5,0.2-0.9,0.3-1.2c0-0.2,0-0.3,0-0.5c0-0.1,0-0.2-0.1-0.5c-0.3-0.5-0.6-0.5-0.9-0.6
		c-0.2-0.1-0.7-0.3-1.2-0.6c-0.5-0.2-1-0.5-1.2-0.6s-0.4-0.2-0.7-0.1c-0.3,0-0.6,0.3-0.8,0.5s-0.8,1-1,1.3c0,0,0,0-0.1,0
		c-0.3-0.1-0.6-0.2-1-0.5c-0.5-0.2-1-0.6-1.7-1.2l0,0c-0.9-0.8-1.6-1.9-1.8-2.2l0,0l0,0c0.2-0.2,0.4-0.5,0.6-0.6
		c0.2-0.3,0.3-0.5,0.4-0.7c0.2-0.4,0.1-0.9,0-1.1l0,0c0,0-0.1-0.1-0.1-0.3c-0.1-0.2-0.2-0.4-0.3-0.7c-0.2-0.5-0.5-1.1-0.6-1.5l0,0
		c-0.2-0.4-0.4-0.7-0.7-0.9c-0.3-0.1-0.6-0.1-0.6-0.1l0,0C38,35.8,37.8,35.8,37.5,35.8z"/>
</g>
<path class="st1" d="M231.1,92.9c-13.6,0-24.6,11-24.6,24.6s11,24.6,24.6,24.6s24.6-11,24.6-24.6C255.7,103.9,244.7,92.9,231.1,92.9
	z"/>
<path class="st0" d="M236.4,117.4h-3.5c0,5.6,0,12.6,0,12.6h-5.2c0,0,0-6.9,0-12.6h-2.5V113h2.5v-2.9c0-2.1,1-5.3,5.3-5.3h3.9v4.3
	c0,0-2.4,0-2.8,0c-0.5,0-1.1,0.2-1.1,1.2v2.6h4L236.4,117.4z"/>
<path class="st1" d="M168,92.9c-13.6,0-24.6,11-24.6,24.6s11,24.6,24.6,24.6s24.6-11,24.6-24.6S181.6,92.9,168,92.9z"/>
<path class="st0" d="M178.3,113.6c0,0.2,0,0.4,0,0.7c0,6.8-5.2,14.6-14.6,14.6c-2.9,0-5.6-0.8-7.9-2.3c0.4,0,0.8,0.1,1.2,0.1
	c2.4,0,4.6-0.8,6.4-2.2c-2.2,0-4.1-1.5-4.8-3.6c0.3,0.1,0.6,0.1,1,0.1c0.5,0,0.9-0.1,1.4-0.2c-2.3-0.5-4.1-2.5-4.1-5c0,0,0,0,0-0.1
	c0.7,0.4,1.5,0.6,2.3,0.6c-1.4-0.9-2.3-2.5-2.3-4.3c0-0.9,0.3-1.8,0.7-2.6c2.5,3.1,6.3,5.1,10.6,5.4c-0.1-0.4-0.1-0.8-0.1-1.2
	c0-2.8,2.3-5.1,5.1-5.1c1.5,0,2.8,0.6,3.7,1.6c1.2-0.2,2.3-0.7,3.3-1.2c-0.4,1.2-1.2,2.2-2.3,2.8c1-0.1,2-0.4,2.9-0.8
	C180.2,112,179.3,112.9,178.3,113.6z"/>
<ellipse class="st1" cx="105" cy="117.5" rx="24.6" ry="24.6"/>
<g>
	<path class="st0" d="M117,107l-4.4,22.2c0,0-0.6,1.5-2.3,0.8l-10.2-7.8l-3.7-1.8l-6.2-2.1c0,0-1-0.3-1-1.1
		c-0.1-0.7,1.1-1.1,1.1-1.1l24.7-9.7C114.9,106.4,117,105.5,117,107z"/>
	<path class="st1" d="M99.3,129c0,0-0.3,0-0.7-1.2c-0.4-1.2-2.2-7.3-2.2-7.3l14.9-9.5c0,0,0.9-0.5,0.8,0c0,0,0.2,0.1-0.3,0.5
		s-11.7,10.6-11.7,10.6"/>
	<path class="st0" d="M104,125.2l-4,3.7c0,0-0.3,0.2-0.7,0.1l0.8-6.8"/>
</g>
<path class="st1" d="M42.3,92c-13.6,0-24.6,11-24.6,24.6s11,24.6,24.6,24.6s24.6-11,24.6-24.6S55.9,92,42.3,92z"/>
<g>
	<path class="st0" d="M42.5,102.4c-7.5,0-13.7,6.1-13.7,13.7c0,2.4,0.7,4.7,1.8,6.7l-1.8,6.3c-0.1,0.3,0.1,0.6,0.4,0.7
		c0.1,0,0.2,0,0.3,0l6.5-1.6c1.9,1,4.1,1.6,6.4,1.6c7.5,0,13.7-6.1,13.7-13.7S50,102.4,42.5,102.4z"/>
	<path class="st1" d="M37.5,108.9c-0.4,0-0.9,0.1-1.4,0.6c-0.3,0.3-1.4,1.4-1.4,3.3c0,2,1.4,3.7,1.6,3.9l0,0l0,0
		c0,0,0.2,0.3,0.5,0.7c0.3,0.4,0.7,0.9,1.3,1.5c1.1,1.1,2.6,2.4,4.4,3.2c0.9,0.4,1.5,0.6,2.1,0.7c1,0.3,1.8,0.3,2.5,0.2
		c0.5-0.1,1-0.3,1.6-0.6c0.5-0.3,1.1-0.8,1.3-1.4c0.2-0.5,0.2-0.9,0.3-1.2c0-0.2,0-0.3,0-0.5c0-0.1,0-0.2-0.1-0.5
		c-0.3-0.5-0.6-0.5-0.9-0.6c-0.2-0.1-0.7-0.3-1.2-0.6c-0.5-0.2-1-0.5-1.2-0.6s-0.4-0.2-0.7-0.1c-0.3,0-0.6,0.3-0.8,0.5s-0.8,1-1,1.3
		c0,0,0,0-0.1,0c-0.3-0.1-0.6-0.2-1-0.5c-0.5-0.2-1-0.6-1.7-1.2l0,0c-0.9-0.8-1.6-1.9-1.8-2.2l0,0l0,0c0.2-0.2,0.4-0.5,0.6-0.6
		c0.2-0.3,0.3-0.5,0.4-0.7c0.2-0.4,0.1-0.9,0-1.1l0,0c0,0-0.1-0.1-0.1-0.3c-0.1-0.2-0.2-0.4-0.3-0.7c-0.2-0.5-0.5-1.1-0.6-1.5l0,0
		c-0.2-0.4-0.4-0.7-0.7-0.9c-0.3-0.1-0.6-0.1-0.6-0.1l0,0C38,108.9,37.8,108.9,37.5,108.9z"/>
</g>
<path d="M294.6,20.1c-13.6,0-24.6,11-24.6,24.6s11,24.6,24.6,24.6s24.6-11,24.6-24.6C319.2,31.1,308.2,20.1,294.6,20.1z"/>
<path class="st1" d="M294.6,93.3c-13.6,0-24.6,11-24.6,24.6s11,24.6,24.6,24.6s24.6-11,24.6-24.6C319.2,104.3,308.2,93.3,294.6,93.3
	z"/>
<path class="st0" d="M302.6,104h-14.2c-1.6,0-2.8,1.3-2.8,2.9V130l9.9-7.2l9.9,7.2v-23.1C305.4,105.3,304.2,104,302.6,104z"/>
<path class="st0" d="M302.2,30.8h-14.2c-1.6,0-2.8,1.3-2.8,2.9v23.1l9.9-7.2l9.9,7.2V33.7C305.1,32.1,303.8,30.8,302.2,30.8z"/>
</svg>
